<?xml version="1.0" standalone="no"?>
<!DOCTYPE svg PUBLIC "-//W3C//DTD SVG 20010904//EN"
 "http://www.w3.org/TR/2001/REC-SVG-20010904/DTD/svg10.dtd">
<svg version="1.0" xmlns="http://www.w3.org/2000/svg"
 width="8094.000000pt" height="4553.000000pt" viewBox="0 0 8094.000000 4553.000000"
 preserveAspectRatio="xMidYMid meet">

<g transform="translate(0.000000,4553.000000) scale(0.100000,-0.100000)"
fill="#000000" stroke="none">
<path d="M0 31400 c0 -12553 2 -14130 15 -14130 8 0 15 -5 15 -10 0 -12 45
-60 55 -60 14 0 35 -30 35 -49 0 -12 4 -21 8 -21 13 0 92 -76 92 -89 0 -12 44
-61 55 -61 13 0 35 -29 35 -45 0 -16 22 -45 35 -45 4 0 20 -13 35 -30 15 -16
33 -30 39 -30 6 0 11 -5 11 -11 0 -11 25 -39 35 -39 15 0 55 -51 55 -70 0 -15
6 -20 25 -20 18 0 25 -5 25 -20 0 -13 7 -20 20 -20 22 0 70 -41 70 -59 0 -6 7
-8 15 -5 8 4 15 1 15 -5 0 -12 44 -61 55 -61 10 0 55 -49 55 -60 0 -5 5 -10
10 -10 6 0 21 -10 34 -23 12 -12 34 -31 49 -42 15 -11 27 -25 27 -32 0 -7 5
-13 11 -13 6 0 24 -13 39 -30 15 -16 36 -30 45 -30 23 0 45 -24 45 -49 0 -16
6 -21 25 -21 14 0 25 -4 25 -10 0 -5 11 -10 25 -10 17 0 25 -5 25 -18 0 -10 9
-24 20 -32 11 -8 20 -21 20 -28 0 -10 7 -12 25 -8 15 4 25 2 25 -5 0 -11 25
-39 35 -39 4 0 20 -13 35 -30 15 -16 33 -30 39 -30 6 0 11 -5 11 -10 0 -11 45
-60 55 -60 11 0 55 -49 55 -61 0 -6 7 -9 15 -5 9 3 15 0 15 -9 0 -8 9 -15 20
-15 11 0 20 -6 20 -13 0 -16 36 -47 55 -47 8 0 15 -4 15 -10 0 -5 7 -10 15
-10 8 0 15 -5 15 -11 0 -12 25 -39 35 -39 4 0 20 -13 35 -30 15 -16 33 -30 39
-30 6 0 11 -7 11 -16 0 -8 4 -12 10 -9 5 3 10 -1 10 -9 0 -10 9 -16 23 -16 12
0 29 -9 37 -20 8 -11 21 -20 30 -20 18 0 70 -43 70 -57 0 -6 11 -8 25 -5 15 2
25 0 25 -8 0 -14 25 -40 39 -40 6 0 11 -4 11 -10 0 -5 7 -10 16 -10 8 0 21 -6
28 -12 7 -7 25 -22 39 -33 15 -11 27 -25 27 -32 0 -7 6 -13 13 -13 7 0 19 -9
27 -20 8 -11 23 -20 33 -20 19 0 67 -42 67 -60 0 -6 10 -8 25 -4 19 5 25 2 25
-10 0 -9 8 -16 20 -16 11 0 20 -4 20 -10 0 -5 6 -10 13 -10 7 0 19 -9 27 -20
8 -11 23 -20 33 -20 24 0 47 -24 47 -49 0 -15 6 -21 23 -21 12 0 29 -9 37 -20
8 -11 19 -20 25 -20 6 0 17 -9 25 -20 8 -11 21 -20 30 -20 19 -1 50 -24 50
-39 0 -6 8 -11 18 -11 10 0 28 -9 40 -20 12 -11 28 -20 37 -20 8 0 15 -4 15
-10 0 -5 5 -10 11 -10 6 0 26 -16 45 -36 21 -21 41 -33 50 -30 8 3 14 1 14 -5
0 -13 25 -39 37 -39 5 0 15 -9 23 -20 8 -11 25 -20 37 -20 13 0 23 -4 23 -10
0 -5 9 -10 20 -10 11 0 20 -6 20 -14 0 -9 8 -12 25 -8 15 2 25 0 25 -8 0 -17
26 -40 47 -40 10 0 25 -9 33 -20 8 -11 19 -20 25 -20 6 0 17 -9 25 -20 8 -11
25 -20 37 -20 13 0 23 -6 23 -14 0 -11 9 -13 35 -9 23 4 35 2 35 -6 0 -18 47
-61 67 -61 10 0 25 -9 33 -20 8 -11 23 -20 33 -20 20 0 47 -22 47 -39 0 -6 7
-11 15 -11 8 0 15 -4 15 -10 0 -5 14 -10 30 -10 17 0 30 -4 30 -10 0 -5 6 -10
13 -10 7 0 19 -9 27 -20 8 -11 24 -20 35 -20 11 0 27 -9 35 -20 8 -11 25 -20
37 -20 13 0 23 -5 23 -11 0 -17 27 -39 49 -39 12 0 21 -4 21 -10 0 -5 9 -10
20 -10 11 0 20 -4 20 -10 0 -5 6 -10 13 -10 7 0 19 -9 27 -20 8 -11 25 -20 37
-20 13 0 23 -4 23 -10 0 -5 9 -10 20 -10 11 0 20 -7 20 -15 0 -8 6 -15 13 -15
7 0 19 -9 27 -20 8 -11 25 -20 37 -20 13 0 23 -4 23 -10 0 -5 14 -10 30 -10
17 0 30 -4 30 -10 0 -5 7 -10 15 -10 9 0 15 -9 15 -24 0 -19 4 -23 20 -19 13
3 22 -1 26 -11 5 -14 15 -16 50 -10 31 4 44 3 44 -5 0 -19 48 -61 70 -61 11 0
20 -4 20 -10 0 -5 16 -10 35 -10 19 0 35 -4 35 -10 0 -5 8 -10 18 -10 10 0 28
-9 40 -20 12 -11 28 -20 37 -20 8 0 15 -4 15 -10 0 -5 11 -10 25 -10 16 0 25
-6 25 -16 0 -12 7 -15 25 -12 14 3 25 1 25 -4 0 -19 30 -38 59 -38 17 0 31 -4
31 -10 0 -5 9 -10 21 -10 12 0 34 -13 49 -30 19 -21 37 -30 59 -30 17 0 31 -4
31 -10 0 -5 11 -10 25 -10 16 0 25 -6 25 -16 0 -11 6 -14 20 -9 14 5 20 2 20
-9 0 -9 7 -16 15 -16 8 0 15 -4 15 -10 0 -5 9 -10 20 -10 11 0 20 -4 20 -10 0
-5 16 -10 35 -10 19 0 35 -4 35 -10 0 -5 6 -10 13 -10 7 0 19 -9 27 -20 8 -11
25 -20 37 -20 13 0 23 -4 23 -10 0 -5 18 -10 41 -10 36 0 69 -17 69 -35 0 -14
30 -35 49 -35 12 0 21 -4 21 -10 0 -5 16 -10 35 -10 19 0 35 -4 35 -10 0 -5
11 -10 25 -10 18 0 25 -5 25 -20 0 -13 7 -20 20 -20 11 0 20 -4 20 -10 0 -6
27 -10 60 -10 33 0 60 -4 60 -10 0 -5 9 -10 20 -10 11 0 20 -4 20 -10 0 -5 7
-10 15 -10 8 0 15 -7 15 -16 0 -11 6 -14 20 -9 15 5 20 2 20 -10 0 -15 7 -16
45 -11 38 6 45 5 45 -10 0 -12 6 -15 25 -12 17 4 25 1 25 -8 0 -8 11 -14 25
-14 14 0 25 -4 25 -10 0 -5 9 -10 20 -10 11 0 20 -4 20 -10 0 -6 26 -10 58
-10 46 0 60 -4 72 -20 8 -11 25 -20 37 -20 13 0 23 -4 23 -10 0 -5 9 -10 20
-10 11 0 20 -4 20 -10 0 -5 20 -10 44 -10 25 0 48 -4 51 -10 3 -5 15 -10 26
-10 10 0 19 -4 19 -10 0 -5 11 -10 25 -10 14 0 25 -4 25 -10 0 -5 9 -10 20
-10 11 0 20 -4 20 -10 0 -5 20 -10 44 -10 25 0 48 -4 51 -10 3 -5 15 -10 26
-10 11 0 19 -7 19 -16 0 -8 4 -13 9 -10 5 3 11 -1 15 -9 3 -8 15 -15 26 -15
11 0 20 -4 20 -10 0 -5 20 -10 45 -10 25 0 45 -4 45 -10 0 -5 14 -10 30 -10
17 0 40 -9 52 -20 12 -11 34 -20 50 -20 15 0 28 -4 28 -10 0 -5 16 -10 35 -10
19 0 35 -4 35 -10 0 -5 16 -10 35 -10 19 0 35 -4 35 -10 0 -5 16 -10 35 -10
19 0 35 -4 35 -10 0 -5 16 -10 35 -10 19 0 35 -4 35 -10 0 -5 20 -10 45 -10
25 0 45 -4 45 -10 0 -5 20 -10 45 -10 25 0 45 -4 45 -10 0 -5 11 -10 25 -10
14 0 25 -4 25 -10 0 -5 9 -10 19 -10 11 0 23 -4 26 -10 3 -5 35 -10 71 -10 36
0 64 -4 64 -10 0 -5 16 -10 35 -10 19 0 35 -4 35 -10 0 -5 11 -10 25 -10 14 0
25 -4 25 -10 0 -5 16 -10 35 -10 19 0 35 -4 35 -10 0 -5 25 -10 55 -10 30 0
55 -4 55 -10 0 -5 16 -10 35 -10 19 0 35 -4 35 -10 0 -5 16 -10 35 -10 19 0
35 -4 35 -10 0 -5 16 -10 35 -10 19 0 35 -4 35 -10 0 -5 25 -10 55 -10 30 0
55 -4 55 -10 0 -5 16 -10 35 -10 19 0 35 -4 35 -10 0 -5 11 -10 25 -10 14 0
25 -4 25 -10 0 -5 9 -10 20 -10 11 0 20 -4 20 -10 0 -6 30 -10 70 -10 40 0 70
-4 70 -10 0 -5 16 -10 35 -10 19 0 35 -4 35 -10 0 -5 20 -10 45 -10 25 0 45
-4 45 -10 0 -5 11 -10 25 -10 14 0 25 -5 25 -11 0 -8 29 -10 100 -7 81 4 100
2 100 -9 0 -10 9 -12 35 -7 29 5 35 3 35 -11 0 -13 6 -16 25 -13 17 4 25 1 25
-8 0 -9 12 -14 35 -14 19 0 35 -5 35 -10 0 -7 35 -8 100 -4 73 5 100 4 100 -4
0 -7 18 -12 45 -12 25 0 45 -4 45 -10 0 -5 16 -10 35 -10 19 0 35 -4 35 -10 0
-5 20 -10 45 -10 27 0 45 -5 45 -11 0 -8 37 -10 125 -7 93 3 125 1 125 -8 0
-9 17 -11 60 -7 41 4 60 2 60 -6 0 -6 18 -11 45 -11 25 0 45 -4 45 -10 0 -5
16 -10 35 -10 20 0 35 -5 35 -12 0 -8 49 -10 190 -5 121 4 190 3 190 -3 0 -6
35 -10 80 -10 47 0 80 -4 80 -10 0 -6 30 -10 70 -10 46 0 70 -4 70 -11 0 -9
20 -10 70 -5 58 5 70 4 70 -8 0 -12 11 -14 48 -11 26 3 202 10 391 16 263 8
345 8 351 -1 5 -9 69 -9 266 -1 192 8 260 8 265 -1 10 -16 598 4 608 20 4 8
86 15 235 20 140 6 231 14 235 20 4 7 105 15 265 21 143 6 262 15 265 20 3 5
50 12 104 16 53 4 97 11 97 15 0 4 28 10 62 12 35 3 64 10 66 16 2 8 34 12 93
12 69 0 89 3 89 14 0 11 39 15 192 21 142 5 195 11 206 21 8 9 35 14 73 14 32
0 59 4 59 9 0 5 23 11 52 13 29 3 54 11 56 17 2 6 19 11 38 11 20 0 33 4 30 9
-9 14 49 21 175 21 99 0 119 3 119 15 0 10 11 15 35 15 19 0 35 5 35 10 0 6
14 10 30 10 20 0 30 5 30 15 0 12 13 15 56 15 36 0 61 5 70 15 12 11 39 15
105 15 50 0 89 4 89 10 0 5 16 12 35 16 19 3 35 10 35 15 0 5 9 9 20 9 11 0
20 4 20 9 0 5 16 12 35 15 19 4 35 11 35 16 0 6 39 10 89 10 66 0 93 4 105 15
8 8 28 15 45 15 17 0 31 5 31 10 0 6 7 10 15 10 9 0 18 7 21 15 4 10 20 15 49
15 25 0 45 5 47 12 3 7 32 14 71 16 37 2 67 8 67 13 0 5 16 9 35 9 24 0 35 5
35 15 0 8 9 15 20 15 11 0 20 5 20 10 0 6 16 10 35 10 24 0 35 5 35 15 0 12
14 15 65 15 36 0 65 4 65 9 0 5 16 12 35 15 19 4 35 11 35 16 0 6 11 10 25 10
14 0 25 4 25 9 0 5 20 12 45 15 25 4 45 11 45 17 0 5 20 9 45 9 33 0 45 4 45
15 0 10 10 15 30 15 17 0 30 5 30 10 0 6 11 10 24 10 13 0 26 7 30 15 3 9 18
15 36 15 18 0 29 4 25 10 -4 6 13 10 44 10 41 0 49 3 45 15 -5 12 2 15 30 15
20 0 36 5 36 10 0 6 11 10 25 10 16 0 25 6 25 15 0 11 12 15 45 15 25 0 45 5
45 10 0 6 14 10 30 10 20 0 30 5 30 15 0 10 11 15 35 15 19 0 35 5 35 10 0 6
11 10 25 10 16 0 25 6 25 15 0 8 9 15 20 15 11 0 20 5 20 10 0 6 30 10 70 10
56 0 70 3 70 15 0 8 9 15 20 15 11 0 20 5 20 10 0 6 11 10 25 10 18 0 23 4 19
15 -5 11 1 15 20 15 14 0 26 5 26 10 0 6 20 10 45 10 33 0 45 4 45 15 0 8 9
15 20 15 11 0 20 5 20 10 0 6 5 10 11 10 6 0 17 6 24 12 37 34 47 38 80 38 20
0 43 7 51 15 9 8 26 15 40 15 13 0 24 5 24 10 0 6 9 10 20 10 11 0 20 5 20 10
0 6 9 10 20 10 11 0 23 7 26 15 4 11 21 15 58 15 46 0 54 3 66 25 8 16 22 25
37 25 13 0 23 5 23 10 0 6 9 10 20 10 11 0 20 7 20 15 0 10 11 15 35 15 19 0
35 5 35 10 0 6 9 10 20 10 11 0 20 5 20 11 0 16 26 39 45 39 9 0 23 7 31 15 9
8 26 15 40 15 13 0 24 5 24 10 0 6 7 10 16 10 18 0 44 23 44 39 0 6 11 11 25
11 14 0 25 5 25 10 0 6 14 10 30 10 20 0 30 5 30 15 0 8 9 15 20 15 12 0 32
11 46 25 14 14 31 25 39 25 8 0 15 5 15 10 0 6 20 10 45 10 25 0 45 3 45 8 0
4 11 19 24 35 16 19 33 27 55 27 21 0 31 5 31 15 0 10 10 15 30 15 17 0 30 5
30 10 0 6 7 10 15 10 8 0 15 5 15 11 0 16 26 39 44 39 9 0 16 5 16 10 0 6 11
10 24 10 14 0 31 7 40 15 8 8 22 15 30 15 9 0 16 5 16 10 0 6 7 10 15 10 8 0
15 7 15 15 0 8 9 15 20 15 11 0 20 5 20 10 0 6 20 10 45 10 25 0 45 5 45 10 0
19 48 60 70 60 11 0 20 7 20 15 0 10 10 15 31 15 27 0 59 19 59 35 0 14 51 55
69 55 11 0 26 7 35 15 8 8 22 15 30 15 9 0 16 5 16 10 0 6 7 10 15 10 8 0 15
5 15 11 0 16 26 39 44 39 9 0 16 5 16 10 0 6 6 10 14 10 17 0 76 54 76 69 0 6
18 11 41 11 36 0 69 17 69 35 0 8 27 35 35 35 10 0 35 28 35 39 0 6 16 11 36
11 21 0 33 4 29 10 -3 6 -1 10 5 10 6 0 18 6 25 13 35 31 45 37 60 37 16 0 45
22 45 35 0 15 51 55 70 55 11 0 20 5 20 10 0 6 13 24 30 42 16 17 30 35 30 39
0 5 14 9 31 9 27 0 59 19 59 35 0 13 29 35 48 35 10 0 25 11 32 25 7 14 22 25
32 25 13 0 18 7 18 25 0 20 5 25 25 25 14 0 25 5 25 10 0 6 7 10 16 10 18 0
44 23 44 39 0 6 7 11 15 11 8 0 15 5 15 10 0 6 9 10 20 10 11 0 20 5 20 11 0
16 26 39 45 39 16 0 45 22 45 35 0 10 48 55 59 55 6 0 8 7 5 15 -4 8 -1 15 5
15 15 0 61 45 61 60 0 5 12 10 26 10 14 0 23 4 19 10 -3 6 1 10 9 10 9 0 16 5
16 10 0 19 48 60 71 60 15 0 19 5 15 15 -3 8 0 15 7 15 7 0 19 9 27 20 8 11
22 20 32 20 10 0 18 7 18 15 0 8 5 15 11 15 11 0 39 25 39 35 0 12 29 35 44
35 9 0 16 5 16 10 0 6 7 10 15 10 8 0 15 5 15 11 0 6 14 24 30 39 17 15 30 31
30 35 0 11 28 35 40 35 6 0 8 4 5 10 -3 6 1 10 9 10 9 0 16 5 16 11 0 16 26
39 44 39 10 0 16 9 16 21 0 26 23 49 49 49 12 0 21 5 21 10 0 14 46 60 59 60
6 0 8 7 5 15 -4 8 -1 15 5 15 12 0 61 44 61 55 0 10 49 55 60 55 5 0 10 5 10
11 0 6 14 24 30 39 17 15 30 31 30 35 0 10 27 35 38 35 5 0 15 11 22 25 7 14
20 25 27 25 21 0 43 25 43 49 0 12 6 21 16 21 8 0 12 5 9 10 -4 6 5 10 19 10
14 0 26 5 26 10 0 15 46 60 61 60 6 0 9 7 5 15 -3 8 -1 15 5 15 11 0 59 45 59
55 0 3 25 30 55 60 30 29 55 58 55 64 0 6 9 11 20 11 11 0 20 5 20 10 0 6 7
10 15 10 9 0 15 9 15 21 0 12 14 34 30 49 16 15 30 31 30 35 0 10 28 35 39 35
7 0 9 10 5 25 -4 16 -2 25 5 25 12 0 61 44 61 55 0 11 49 55 61 55 7 0 9 9 5
25 -4 15 -2 25 5 25 11 0 39 25 39 35 0 4 14 20 30 35 17 15 30 33 30 39 0 6
5 11 10 11 11 0 60 45 60 55 0 3 25 30 55 60 30 29 55 58 55 64 0 6 5 11 10
11 6 0 10 9 10 20 0 11 4 20 8 20 5 0 15 11 22 25 7 14 17 25 22 25 15 0 38
27 38 44 0 9 14 30 30 48 17 17 30 39 30 49 0 14 7 19 25 19 16 0 25 6 25 15
0 8 5 15 10 15 6 0 10 9 10 20 0 11 5 20 10 20 6 0 10 5 10 10 0 15 46 60 61
60 6 0 9 7 5 15 -3 9 0 15 9 15 8 0 15 9 15 20 0 11 5 20 10 20 6 0 10 5 10
11 0 6 14 24 30 39 17 15 30 33 30 39 0 6 5 11 10 11 18 0 60 48 60 67 0 10 9
25 20 33 11 8 20 23 20 33 0 20 22 47 39 47 7 0 9 10 5 25 -4 16 -2 25 6 25
13 0 40 25 40 37 0 5 9 15 20 23 11 8 20 23 20 33 0 20 22 47 39 47 6 0 8 7 4
16 -3 10 7 27 31 48 25 24 36 42 36 63 0 17 8 34 20 43 11 8 20 18 20 23 0 12
27 37 40 37 8 0 10 9 6 25 -4 17 -2 25 6 25 7 0 22 12 33 27 11 14 26 32 33
39 6 7 12 20 12 28 0 9 5 16 10 16 6 0 10 9 10 21 0 22 22 49 39 49 6 0 11 7
11 15 0 8 5 15 10 15 6 0 10 9 10 20 0 11 5 20 10 20 6 0 10 6 10 13 0 7 9 19
20 27 11 8 20 23 20 33 0 20 22 47 39 47 6 0 11 9 11 21 0 12 14 34 30 49 17
15 30 36 30 47 0 10 9 25 20 33 11 8 20 20 20 27 0 7 7 13 16 13 11 0 15 6 11
20 -3 13 0 20 9 20 8 0 14 9 14 21 0 24 22 49 44 49 10 0 16 9 16 25 0 14 5
25 10 25 6 0 10 11 10 25 0 14 5 25 10 25 6 0 10 9 10 20 0 11 7 20 15 20 8 0
15 7 15 15 0 8 5 15 10 15 6 0 10 9 10 20 0 11 5 20 10 20 6 0 10 10 10 23 0
12 9 29 20 37 11 8 20 20 20 27 0 7 5 13 10 13 6 0 10 9 10 20 0 11 5 20 10
20 6 0 10 16 10 35 0 25 4 35 16 35 8 0 12 5 9 10 -3 6 1 10 9 10 9 0 16 7 16
15 0 8 5 15 10 15 6 0 10 9 10 20 0 11 5 20 10 20 6 0 10 10 10 23 0 12 9 29
20 37 11 8 20 20 20 27 0 7 5 13 10 13 6 0 10 9 10 20 0 11 7 20 15 20 13 0
15 7 9 35 -6 33 -5 35 20 35 16 0 26 5 26 15 0 8 5 15 10 15 6 0 10 9 10 20 0
11 5 20 10 20 6 0 10 15 10 33 0 21 7 38 20 47 11 8 20 20 20 27 0 7 7 13 16
13 11 0 15 6 11 20 -3 13 0 20 9 20 8 0 14 10 14 25 0 14 5 25 10 25 6 0 10 9
10 21 0 12 14 34 30 49 21 19 30 37 30 59 0 17 5 31 10 31 6 0 10 5 10 11 0
14 25 39 39 39 6 0 11 10 11 23 0 12 9 29 20 37 11 8 20 25 20 37 0 13 5 23
10 23 6 0 10 9 10 20 0 11 5 20 10 20 6 0 10 11 10 25 0 14 5 25 10 25 6 0 10
9 10 20 0 11 5 20 10 20 6 0 10 7 10 15 0 8 5 15 11 15 17 0 39 27 39 49 0 12
5 21 10 21 6 0 10 15 10 33 0 21 7 38 20 47 11 8 20 25 20 37 0 13 5 23 10 23
6 0 10 9 10 20 0 11 5 20 10 20 6 0 10 15 10 33 0 23 7 38 25 51 13 10 22 22
19 27 -3 5 2 9 10 9 9 0 16 9 16 20 0 11 5 20 10 20 6 0 10 16 10 35 0 19 5
35 10 35 6 0 10 10 10 23 0 12 9 29 20 37 11 8 20 25 20 37 0 13 5 23 10 23 6
0 10 16 10 35 0 19 5 35 10 35 6 0 10 9 10 20 0 11 5 20 10 20 6 0 10 7 10 15
0 8 5 15 11 15 20 0 39 29 39 59 0 17 5 31 10 31 6 0 10 10 10 23 0 12 9 29
20 37 11 8 20 25 20 37 0 13 5 23 10 23 6 0 10 13 10 29 0 17 5 33 10 36 5 3
10 14 10 23 0 10 11 25 24 35 16 12 22 25 19 38 -4 13 0 19 12 19 14 0 16 6
11 35 -5 23 -3 35 4 35 18 0 40 27 40 49 0 12 5 21 10 21 6 0 10 11 10 25 0
14 5 25 10 25 6 0 10 14 10 30 0 17 5 30 10 30 6 0 10 6 10 13 0 7 9 19 20 27
13 9 20 26 20 47 0 18 5 33 10 33 6 0 10 11 10 25 0 16 6 25 16 25 11 0 15 6
11 20 -3 13 0 20 9 20 8 0 14 10 14 25 0 14 5 25 10 25 6 0 10 11 10 25 0 14
5 25 10 25 6 0 10 14 10 30 0 17 5 30 10 30 6 0 10 16 10 35 0 19 5 35 10 35
6 0 10 7 10 15 0 8 5 15 10 15 6 0 10 9 10 20 0 11 5 20 10 20 6 0 10 16 10
35 0 19 5 35 10 35 6 0 10 9 10 21 0 22 22 49 40 49 7 0 9 12 4 35 -5 29 -3
35 10 35 15 0 16 7 10 45 -5 38 -4 45 10 45 9 0 16 7 16 15 0 8 5 15 10 15 6
0 10 9 10 20 0 11 5 20 10 20 6 0 10 11 10 25 0 14 5 25 10 25 6 0 10 16 10
35 0 19 5 35 10 35 6 0 10 9 10 20 0 11 5 20 10 20 6 0 10 11 10 25 0 14 5 25
10 25 6 0 10 16 10 35 0 19 5 35 10 35 6 0 10 9 10 20 0 11 5 20 10 20 6 0 10
11 10 25 0 14 5 25 10 25 6 0 10 11 10 25 0 16 6 25 16 25 11 0 14 6 9 20 -5
15 -2 20 11 20 13 0 16 7 11 35 -4 26 -2 35 9 35 8 0 14 10 14 23 0 12 9 29
20 37 11 8 20 25 20 37 0 13 5 23 10 23 6 0 10 25 10 55 0 30 5 55 10 55 6 0
10 7 10 15 0 8 5 15 10 15 6 0 10 14 10 30 0 17 5 30 10 30 6 0 10 11 10 25 0
14 5 25 10 25 6 0 10 20 10 45 0 25 5 45 10 45 6 0 10 9 10 21 0 21 21 49 37
49 5 0 7 16 5 35 -3 26 0 35 11 35 11 0 13 10 9 45 -3 30 -1 45 7 45 6 0 11
11 11 25 0 16 6 25 16 25 11 0 15 6 11 20 -3 13 0 20 9 20 8 0 14 10 14 25 0
14 5 25 10 25 6 0 10 20 10 45 0 25 5 45 10 45 6 0 10 15 10 33 0 21 7 38 20
47 13 9 20 26 20 47 0 18 5 33 10 33 6 0 10 23 10 50 0 28 5 50 10 50 6 0 10
14 10 30 0 17 5 30 10 30 6 0 10 7 10 15 0 8 5 15 10 15 6 0 10 9 10 20 0 11
5 20 10 20 6 0 10 26 10 58 0 46 4 60 20 72 13 9 20 26 20 47 0 18 5 33 10 33
6 0 10 11 10 25 0 14 5 25 10 25 6 0 10 20 10 45 0 25 5 45 10 45 6 0 10 9 10
20 0 11 6 20 14 20 9 0 12 8 8 25 -3 19 0 25 13 25 13 0 16 6 13 25 -4 18 -1
25 10 25 12 0 13 9 9 45 -6 37 -4 45 9 45 13 0 15 7 11 35 -4 26 -2 35 9 35 8
0 14 9 14 20 0 11 5 20 10 20 6 0 10 11 10 25 0 14 5 25 11 25 8 0 10 23 7 70
-3 52 0 70 9 70 7 0 13 9 13 20 0 11 5 20 10 20 6 0 10 11 10 25 0 14 5 25 10
25 6 0 10 11 10 25 0 14 5 25 10 25 6 0 10 25 10 55 0 30 5 55 10 55 6 0 10
16 10 35 0 19 5 35 10 35 6 0 10 9 10 20 0 11 5 20 10 20 6 0 10 11 10 25 0
14 5 25 10 25 6 0 10 27 10 60 0 33 4 60 10 60 6 0 10 14 10 30 0 17 5 30 10
30 6 0 10 10 10 23 0 12 9 29 20 37 16 12 20 26 20 72 0 32 4 58 10 58 6 0 10
16 10 35 0 19 5 35 10 35 6 0 10 9 10 20 0 11 5 20 10 20 6 0 10 11 10 25 0
14 5 25 10 25 6 0 10 25 10 55 0 30 5 55 10 55 6 0 10 16 10 35 0 19 5 35 10
35 6 0 10 11 10 25 0 14 5 25 10 25 6 0 10 9 10 20 0 11 5 20 10 20 6 0 10 30
10 70 0 40 4 70 10 70 6 0 10 11 10 25 0 14 5 25 10 25 6 0 10 16 10 35 0 19
5 35 10 35 6 0 10 16 10 35 0 19 5 35 10 35 6 0 10 28 10 65 0 37 4 65 10 65
6 0 10 16 10 35 0 19 5 35 10 35 6 0 10 16 10 35 0 19 5 35 10 35 6 0 10 11
10 25 0 14 5 25 10 25 6 0 10 28 10 65 0 37 4 65 10 65 6 0 10 16 10 35 0 19
5 35 10 35 6 0 10 11 10 25 0 14 5 25 10 25 6 0 10 20 10 45 0 25 5 45 10 45
6 0 10 30 10 70 0 40 4 70 10 70 6 0 10 9 10 20 0 11 5 20 10 20 6 0 10 16 10
35 0 19 5 35 10 35 6 0 10 11 10 25 0 14 5 25 10 25 6 0 10 30 10 70 0 40 4
70 10 70 6 0 10 14 10 30 0 17 5 30 10 30 6 0 10 16 10 35 0 19 5 35 10 35 6
0 10 16 10 35 0 19 5 35 11 35 7 0 10 34 7 105 -2 84 0 105 11 105 10 0 12 10
7 45 -6 37 -4 45 8 45 10 0 16 9 16 25 0 14 5 25 11 25 8 0 10 14 6 45 -5 35
-4 45 8 45 12 0 13 14 8 80 -4 57 -3 80 6 80 6 0 11 18 11 45 0 25 5 45 10 45
6 0 10 20 10 45 0 25 5 45 10 45 6 0 10 16 10 35 0 19 5 35 10 35 6 0 10 40
10 100 0 60 4 100 10 100 6 0 10 23 10 50 0 28 5 50 10 50 6 0 10 14 10 30 0
17 5 30 10 30 6 0 10 16 10 35 0 19 5 35 11 35 8 0 9 31 4 105 -5 75 -4 105 4
105 7 0 11 21 11 55 0 30 5 55 10 55 6 0 10 11 10 25 0 14 5 25 10 25 6 0 10
25 10 55 0 35 4 55 12 55 8 0 9 42 4 160 -4 108 -3 160 4 160 6 0 10 29 10 70
0 40 4 70 10 70 6 0 10 20 10 45 0 25 5 45 10 45 6 0 10 20 10 45 0 26 5 45
11 45 8 0 9 46 4 160 -6 116 -4 160 4 160 6 0 11 18 11 45 0 25 5 45 10 45 6
0 10 30 10 70 0 40 4 70 10 70 6 0 10 20 10 45 0 25 4 45 9 45 5 0 7 75 4 180
-5 132 -3 180 5 180 7 0 12 11 12 25 0 16 -6 25 -15 25 -8 0 -15 5 -15 10 0 6
6 10 13 10 9 0 11 23 9 90 -3 61 0 90 7 90 7 0 11 29 11 80 0 53 4 80 11 80 9
0 10 26 5 94 -5 72 -4 95 6 98 10 4 7 162 -16 799 -39 1116 -37 1079 -53 1079
-10 0 -13 20 -13 79 0 47 -4 81 -11 83 -5 2 -13 38 -16 81 -3 42 -9 77 -13 77
-4 0 -11 39 -15 88 -4 48 -11 90 -17 93 -5 3 -12 85 -15 182 -5 139 -9 177
-20 177 -9 0 -13 14 -13 45 0 25 -4 45 -9 45 -5 0 -12 29 -16 65 -3 36 -11 65
-16 65 -5 0 -9 27 -9 60 0 47 -3 60 -15 60 -12 0 -15 19 -15 114 0 89 -3 118
-15 130 -8 8 -15 31 -15 51 0 20 -6 43 -12 50 -7 8 -19 21 -25 29 -7 8 -13 38
-13 66 0 38 -4 50 -15 50 -13 0 -15 21 -15 125 0 104 -2 125 -15 125 -9 0 -15
9 -15 25 0 14 -4 25 -10 25 -5 0 -10 9 -10 20 0 11 -7 20 -15 20 -10 0 -15 11
-15 35 0 19 -4 35 -9 35 -4 0 -11 39 -14 87 -4 48 -11 89 -17 91 -5 2 -10 12
-10 23 0 10 -4 19 -9 19 -5 0 -12 11 -15 25 -4 14 -11 25 -16 25 -6 0 -10 20
-10 44 0 30 -5 46 -15 50 -11 4 -15 23 -15 81 0 43 -4 75 -10 75 -5 0 -10 9
-10 20 0 11 -7 20 -15 20 -9 0 -15 9 -15 25 0 14 -4 25 -10 25 -5 0 -10 14
-10 30 0 20 -5 30 -15 30 -12 0 -15 14 -15 66 0 38 -5 71 -12 79 -32 36 -38
46 -38 65 0 11 -4 20 -10 20 -5 0 -10 9 -10 20 0 11 -7 20 -15 20 -12 0 -15
14 -15 69 0 52 -4 70 -15 75 -8 3 -15 17 -15 31 0 14 -4 25 -10 25 -5 0 -10 7
-10 15 0 8 -4 15 -10 15 -5 0 -10 11 -10 25 0 14 -7 28 -15 31 -10 4 -15 20
-15 50 0 24 -4 44 -9 44 -5 0 -13 10 -17 23 -4 12 -15 29 -25 38 -11 9 -19 30
-19 48 0 21 -5 31 -15 31 -11 0 -15 12 -15 45 0 25 -4 45 -10 45 -5 0 -10 9
-10 20 0 11 -5 20 -11 20 -22 0 -39 30 -39 69 0 30 -4 41 -15 41 -10 0 -15 11
-15 35 0 19 -4 35 -10 35 -5 0 -10 11 -10 25 0 16 -6 25 -15 25 -8 0 -15 9
-15 20 0 11 -4 20 -10 20 -5 0 -10 11 -10 25 0 18 -4 23 -15 19 -12 -5 -15 2
-15 30 0 20 -4 36 -10 36 -5 0 -10 11 -10 25 0 14 -3 25 -7 25 -5 0 -20 11
-35 24 -20 16 -28 33 -28 55 0 21 -5 31 -15 31 -8 0 -15 9 -15 20 0 11 -4 20
-10 20 -5 0 -10 11 -10 25 0 14 -5 25 -11 25 -20 0 -39 29 -39 59 0 17 -4 31
-10 31 -5 0 -10 7 -10 15 0 9 -7 18 -15 21 -8 4 -15 17 -15 31 0 13 -4 21 -10
18 -5 -3 -10 1 -10 9 0 9 -7 16 -15 16 -8 0 -15 9 -15 20 0 11 -4 20 -10 20
-5 0 -10 11 -10 24 0 13 -7 26 -15 30 -8 3 -15 12 -15 21 0 8 -4 15 -10 15 -5
0 -10 11 -10 25 0 14 -4 25 -10 25 -5 0 -10 9 -10 20 0 11 -7 20 -15 20 -8 0
-15 9 -15 20 0 11 -4 20 -10 20 -5 0 -10 7 -10 15 0 8 -7 15 -15 15 -8 0 -15
9 -15 20 0 11 -4 20 -10 20 -5 0 -10 9 -10 20 0 12 -6 27 -12 36 -45 52 -67
74 -77 74 -6 0 -11 16 -11 35 0 19 -4 35 -10 35 -5 0 -10 11 -10 25 0 14 -5
25 -10 25 -17 0 -60 47 -60 65 0 8 -7 15 -15 15 -9 0 -15 9 -15 25 0 14 -4 25
-10 25 -5 0 -10 9 -10 19 0 10 -7 21 -15 25 -8 3 -15 14 -15 23 0 10 -9 25
-20 33 -11 8 -20 22 -20 32 0 10 -7 18 -15 18 -8 0 -15 6 -15 13 0 7 -9 19
-20 27 -11 8 -20 20 -20 28 0 7 -7 15 -15 18 -8 4 -15 15 -15 26 0 21 -22 48
-39 48 -6 0 -11 9 -11 20 0 11 -4 20 -10 20 -5 0 -10 10 -10 23 0 15 -9 29
-25 37 -14 7 -25 22 -25 32 0 10 -4 18 -10 18 -5 0 -10 7 -10 15 0 8 -7 15
-15 15 -8 0 -15 9 -15 20 0 11 -4 20 -10 20 -5 0 -10 11 -10 25 0 14 -3 25 -7
25 -16 0 -63 48 -63 64 0 9 -7 16 -15 16 -8 0 -15 6 -15 13 0 7 -9 19 -20 27
-11 8 -20 22 -20 32 0 10 -5 18 -11 18 -17 0 -39 27 -39 49 0 12 -5 21 -11 21
-16 0 -39 26 -39 45 0 16 -22 45 -35 45 -4 0 -20 14 -35 30 -15 17 -33 30 -39
30 -6 0 -11 10 -11 23 0 12 -11 31 -25 41 -14 10 -25 25 -25 32 0 8 -4 14 -10
14 -5 0 -10 5 -10 11 0 14 -25 39 -39 39 -6 0 -11 8 -11 18 0 10 -9 24 -20 32
-11 8 -20 21 -20 29 0 13 -53 71 -66 71 -7 0 -34 27 -34 35 0 10 -28 35 -39
35 -6 0 -11 8 -11 18 0 10 -9 24 -20 32 -11 8 -20 20 -20 27 0 7 -5 13 -11 13
-15 0 -39 26 -39 43 0 7 -11 20 -25 27 -14 7 -25 17 -25 22 0 13 -26 38 -39
38 -6 0 -11 9 -11 20 0 11 -4 20 -10 20 -5 0 -10 7 -10 16 0 8 -5 12 -10 9 -5
-3 -10 1 -10 9 0 9 -7 16 -15 16 -8 0 -15 7 -15 15 0 18 -50 71 -62 68 -4 -2
-8 2 -8 8 0 12 -25 39 -35 39 -4 0 -20 14 -35 30 -15 17 -33 30 -39 30 -6 0
-11 5 -11 10 0 11 -45 60 -55 60 -15 0 -55 51 -55 70 0 11 -7 20 -15 20 -8 0
-15 5 -15 10 0 6 -9 10 -20 10 -13 0 -20 7 -20 20 0 11 -7 20 -15 20 -8 0 -15
5 -15 11 0 12 -25 39 -35 39 -4 0 -20 14 -35 30 -15 17 -33 30 -39 30 -6 0
-11 5 -11 10 0 11 -45 60 -55 60 -10 0 -55 48 -55 59 0 6 -7 8 -15 5 -8 -4
-15 -1 -15 5 0 12 -44 61 -55 61 -10 0 -55 49 -55 60 0 5 -5 10 -10 10 -6 0
-21 10 -34 23 -12 12 -34 31 -49 42 -15 11 -27 25 -27 32 0 7 -5 13 -11 13 -6
0 -24 14 -39 30 -15 17 -31 30 -35 30 -11 0 -35 28 -35 40 0 6 -5 8 -10 5 -5
-3 -10 1 -10 9 0 9 -5 16 -11 16 -6 0 -24 14 -39 30 -15 17 -31 30 -35 30 -8
0 -35 27 -35 35 0 8 -27 35 -35 35 -4 0 -20 14 -35 30 -15 17 -33 30 -39 30
-6 0 -11 5 -11 11 0 16 -26 39 -45 39 -21 0 -45 24 -45 44 0 10 -9 16 -21 16
-22 0 -49 22 -49 39 0 6 -5 11 -11 11 -6 0 -24 14 -39 30 -15 17 -36 30 -45
30 -23 0 -45 24 -45 49 0 12 -6 21 -15 21 -8 0 -15 5 -15 10 0 6 -9 10 -20 10
-11 0 -20 5 -20 10 0 6 -5 10 -10 10 -14 0 -60 46 -60 60 0 5 -11 10 -25 10
-14 0 -25 5 -25 10 0 6 -9 10 -21 10 -12 0 -34 14 -49 30 -15 17 -36 30 -45
30 -19 0 -45 23 -45 40 0 7 -7 10 -15 6 -8 -3 -15 -1 -15 5 0 11 -45 59 -55
59 -10 0 -55 49 -55 60 0 5 -5 10 -11 10 -6 0 -24 14 -39 30 -15 17 -31 30
-35 30 -11 0 -35 28 -35 40 0 8 -9 10 -25 6 -15 -4 -25 -2 -25 4 0 18 -48 60
-67 60 -10 0 -25 9 -33 20 -8 11 -20 20 -27 20 -7 0 -13 5 -13 11 0 16 -26 39
-45 39 -9 0 -30 14 -45 30 -15 17 -33 30 -39 30 -6 0 -11 5 -11 10 0 6 -9 10
-20 10 -12 0 -20 7 -20 16 0 10 -6 14 -15 10 -8 -3 -15 -1 -15 5 0 13 -46 59
-60 59 -5 0 -10 5 -10 10 0 6 -9 10 -20 10 -11 0 -20 5 -20 10 0 6 -7 10 -15
10 -8 0 -15 5 -15 11 0 17 -27 39 -49 39 -12 0 -21 5 -21 10 0 6 -9 10 -20 10
-13 0 -20 7 -20 20 0 14 -7 20 -21 20 -22 0 -49 22 -49 39 0 7 -10 9 -25 5
-16 -4 -25 -2 -25 6 0 13 -25 40 -37 40 -5 0 -15 9 -23 20 -8 11 -23 20 -33
20 -21 0 -47 22 -47 40 0 6 -4 8 -10 5 -5 -3 -10 1 -10 9 0 12 -10 16 -35 16
-19 0 -35 5 -35 10 0 6 -5 10 -11 10 -6 0 -24 14 -39 30 -15 17 -36 30 -45 30
-23 0 -45 24 -45 49 0 15 -6 21 -23 21 -12 0 -29 9 -37 20 -8 11 -24 20 -35
20 -11 0 -27 9 -35 20 -8 11 -25 20 -37 20 -13 0 -23 5 -23 11 0 17 -27 39
-49 39 -14 0 -21 6 -21 20 0 14 -7 20 -23 20 -12 0 -29 9 -37 20 -8 11 -25 20
-37 20 -14 0 -23 6 -23 16 0 8 -4 12 -10 9 -5 -3 -10 -1 -10 5 0 14 -25 40
-39 40 -6 0 -11 5 -11 10 0 6 -9 10 -20 10 -11 0 -20 5 -20 10 0 6 -7 10 -15
10 -8 0 -15 5 -15 10 0 6 -9 10 -20 10 -11 0 -20 6 -20 13 0 9 -11 12 -35 9
-28 -3 -35 -1 -35 12 0 10 -4 14 -10 11 -5 -3 -10 1 -10 9 0 9 -6 16 -13 16
-7 0 -19 9 -27 20 -8 11 -25 20 -37 20 -13 0 -23 5 -23 10 0 6 -9 10 -20 10
-11 0 -20 5 -20 10 0 6 -7 10 -15 10 -8 0 -15 5 -15 10 0 6 -9 10 -20 10 -12
0 -20 7 -20 16 0 12 -7 15 -25 12 -14 -3 -25 -1 -25 4 0 13 -26 38 -39 38 -6
0 -11 5 -11 10 0 6 -9 10 -20 10 -11 0 -20 5 -20 10 0 6 -11 10 -25 10 -14 0
-25 5 -25 10 0 6 -8 10 -17 10 -19 1 -53 23 -53 34 0 15 -29 36 -49 36 -12 0
-21 5 -21 10 0 6 -9 10 -20 10 -11 0 -20 5 -20 10 0 6 -7 10 -15 10 -8 0 -15
5 -15 10 0 6 -9 10 -20 10 -11 0 -20 5 -20 10 0 6 -11 10 -25 10 -14 0 -25 5
-25 10 0 6 -11 10 -25 10 -19 0 -25 5 -25 21 0 29 -23 49 -57 49 -17 0 -34 8
-43 20 -8 11 -24 20 -35 20 -11 0 -27 9 -35 20 -9 13 -26 20 -47 20 -22 0 -33
5 -33 15 0 9 -6 12 -15 9 -8 -4 -15 -1 -15 5 0 24 -49 61 -80 61 -16 0 -30 5
-30 10 0 6 -11 10 -25 10 -18 0 -25 5 -25 20 0 13 -7 20 -20 20 -12 0 -20 7
-20 16 0 12 -6 15 -25 10 -18 -5 -25 -2 -25 9 0 9 -9 15 -23 15 -12 0 -29 9
-37 20 -8 11 -25 20 -37 20 -13 0 -23 5 -23 10 0 6 -14 10 -31 10 -22 0 -40 9
-59 30 -15 17 -37 30 -49 30 -12 0 -21 6 -21 15 0 13 -7 15 -35 9 -28 -5 -35
-3 -35 10 0 9 -8 16 -20 16 -13 0 -20 7 -20 20 0 20 -7 20 -10145 20 l-10145
0 0 -14130z"/>
</g>
</svg>
