<?xml version="1.0" standalone="no"?>
<!DOCTYPE svg PUBLIC "-//W3C//DTD SVG 20010904//EN"
 "http://www.w3.org/TR/2001/REC-SVG-20010904/DTD/svg10.dtd">
<svg version="1.0" xmlns="http://www.w3.org/2000/svg"
 width="8126.000000pt" height="4571.000000pt" viewBox="0 0 8126.000000 4571.000000"
 preserveAspectRatio="xMidYMid meet">

<g transform="translate(0.000000,4571.000000) scale(0.100000,-0.100000)"
fill="#000000" stroke="none">
<path d="M72450 31840 c0 -6 -57 -10 -150 -10 -93 0 -150 -4 -150 -10 0 -6
-67 -10 -180 -10 -153 0 -180 -2 -180 -15 0 -13 -29 -15 -205 -15 -130 0 -205
-4 -205 -10 0 -6 -102 -10 -285 -10 -183 0 -285 -4 -285 -10 0 -14 -37 -12
-44 3 -5 10 -7 10 -12 0 -4 -9 -36 -13 -110 -13 -86 0 -104 -3 -104 -15 0 -12
-18 -15 -100 -15 -60 0 -100 -4 -100 -10 0 -6 -42 -10 -105 -10 -63 0 -105 -4
-105 -10 0 -6 -90 -10 -250 -10 -160 0 -250 -4 -250 -10 0 -5 -20 -10 -45 -10
-33 0 -45 -4 -45 -15 0 -12 -13 -15 -55 -15 -30 0 -55 -4 -55 -10 0 -5 -20
-10 -45 -10 -25 0 -45 -4 -45 -10 0 -6 -63 -10 -170 -10 -107 0 -170 -4 -170
-10 0 -6 -30 -10 -70 -10 -56 0 -70 -3 -70 -15 0 -12 -13 -15 -55 -15 -30 0
-55 -4 -55 -10 0 -6 -27 -10 -60 -10 -33 0 -60 -4 -60 -10 0 -6 -63 -10 -170
-10 -144 0 -170 -2 -170 -15 0 -11 -12 -15 -45 -15 -25 0 -45 -4 -45 -10 0 -5
-13 -10 -30 -10 -16 0 -30 -4 -30 -10 0 -5 -16 -10 -35 -10 -19 0 -35 -4 -35
-10 0 -6 -48 -10 -125 -10 -104 0 -125 -2 -125 -15 0 -11 -12 -15 -45 -15 -25
0 -45 -4 -45 -10 0 -5 -15 -10 -33 -10 -21 0 -38 -7 -47 -20 -15 -21 -80 -29
-80 -10 0 6 -7 10 -15 10 -8 0 -15 -4 -15 -10 0 -6 -37 -10 -90 -10 -73 0 -90
-3 -90 -15 0 -12 -13 -15 -55 -15 -30 0 -55 -4 -55 -10 0 -5 -11 -10 -25 -10
-14 0 -25 -4 -25 -10 0 -5 -25 -10 -55 -10 -42 0 -55 -3 -55 -15 0 -12 -17
-15 -90 -15 -53 0 -90 -4 -90 -10 0 -6 -29 -10 -68 -10 -56 0 -70 -3 -82 -20
-8 -11 -25 -20 -37 -20 -14 0 -23 -6 -23 -15 0 -12 -19 -15 -110 -15 -67 0
-110 -4 -110 -10 0 -5 -16 -10 -35 -10 -19 0 -35 -4 -35 -10 0 -5 -11 -10 -25
-10 -14 0 -25 -4 -25 -10 0 -5 -13 -10 -30 -10 -20 0 -30 -5 -30 -15 0 -12
-17 -15 -95 -15 -57 0 -95 -4 -95 -10 0 -5 -13 -10 -30 -10 -16 0 -30 -4 -30
-10 0 -5 -11 -10 -25 -10 -14 0 -25 -4 -25 -10 0 -5 -9 -10 -20 -10 -11 0 -20
-7 -20 -15 0 -12 -18 -15 -105 -15 -63 0 -105 -4 -105 -10 0 -5 -16 -10 -35
-10 -19 0 -35 -4 -35 -10 0 -5 -9 -10 -20 -10 -11 0 -20 -7 -20 -15 0 -10 -11
-15 -35 -15 -19 0 -35 -4 -35 -10 0 -6 -37 -10 -90 -10 -53 0 -90 -4 -90 -10
0 -5 -16 -10 -35 -10 -19 0 -35 -4 -35 -10 0 -5 -11 -10 -25 -10 -16 0 -25 -6
-25 -15 0 -10 -10 -15 -30 -15 -16 0 -30 -4 -30 -10 0 -5 -20 -10 -45 -10 -25
0 -45 -4 -45 -10 0 -5 -16 -10 -35 -10 -19 0 -35 -4 -35 -10 0 -5 -11 -10 -25
-10 -16 0 -25 -6 -25 -15 0 -8 -9 -15 -20 -15 -11 0 -20 -4 -20 -10 0 -6 -30
-10 -70 -10 -40 0 -70 -4 -70 -10 0 -5 -11 -10 -25 -10 -16 0 -25 -6 -25 -15
0 -10 -10 -15 -30 -15 -16 0 -30 -4 -30 -10 0 -5 -7 -10 -15 -10 -8 0 -15 -4
-15 -10 0 -6 -28 -10 -65 -10 -37 0 -65 -4 -65 -10 0 -5 -11 -10 -25 -10 -16
0 -25 -6 -25 -15 0 -10 -11 -15 -35 -15 -19 0 -35 -4 -35 -10 0 -5 -9 -10 -20
-10 -11 0 -20 -4 -20 -10 0 -6 -27 -10 -60 -10 -33 0 -60 -4 -60 -10 0 -5 -13
-10 -30 -10 -20 0 -30 -5 -30 -15 0 -9 -9 -15 -25 -15 -14 0 -25 -4 -25 -10 0
-5 -9 -10 -20 -10 -11 0 -20 -4 -20 -10 0 -6 -27 -10 -60 -10 -47 0 -60 -3
-60 -15 0 -8 -9 -15 -20 -15 -11 0 -20 -4 -20 -10 0 -5 -16 -10 -35 -10 -19 0
-35 -4 -35 -10 0 -5 -11 -10 -25 -10 -14 0 -25 -4 -25 -10 0 -5 -20 -10 -45
-10 -33 0 -45 -4 -45 -15 0 -8 -9 -15 -20 -15 -11 0 -20 -4 -20 -10 0 -5 -11
-10 -25 -10 -14 0 -25 -4 -25 -10 0 -5 -9 -10 -20 -10 -11 0 -20 -4 -20 -10 0
-5 -20 -10 -45 -10 -33 0 -45 -4 -45 -15 0 -10 -11 -15 -35 -15 -19 0 -35 -4
-35 -10 0 -5 -7 -10 -15 -10 -8 0 -15 -4 -15 -10 0 -5 -9 -10 -20 -10 -11 0
-20 -7 -20 -15 0 -11 -12 -15 -45 -15 -25 0 -45 -4 -45 -10 0 -5 -11 -10 -25
-10 -14 0 -25 -4 -25 -10 0 -5 -9 -10 -20 -10 -11 0 -20 -4 -20 -10 0 -5 -11
-10 -25 -10 -16 0 -25 -6 -25 -15 0 -10 -11 -15 -35 -15 -19 0 -35 -4 -35 -10
0 -5 -13 -10 -30 -10 -16 0 -30 -4 -30 -10 0 -5 -9 -10 -21 -10 -22 0 -49 -22
-49 -39 0 -7 -24 -11 -60 -11 -33 0 -60 -4 -60 -10 0 -5 -8 -10 -18 -10 -10 0
-24 -9 -32 -20 -8 -11 -25 -20 -37 -20 -14 0 -23 -6 -23 -15 0 -11 -12 -15
-45 -15 -25 0 -45 -4 -45 -10 0 -5 -11 -10 -25 -10 -14 0 -25 -4 -25 -10 0 -5
-9 -10 -20 -10 -11 0 -20 -7 -20 -15 0 -9 -9 -15 -25 -15 -14 0 -25 -4 -25
-10 0 -5 -20 -10 -45 -10 -25 0 -45 -4 -45 -10 0 -5 -9 -10 -20 -10 -11 0 -20
-4 -20 -10 0 -5 -7 -10 -15 -10 -8 0 -15 -5 -15 -11 0 -20 -29 -39 -59 -39
-17 0 -31 -4 -31 -10 0 -5 -9 -10 -20 -10 -11 0 -20 -4 -20 -10 0 -5 -11 -10
-25 -10 -14 0 -25 -5 -25 -11 0 -20 -29 -39 -59 -39 -17 0 -31 -4 -31 -10 0
-5 -9 -10 -20 -10 -11 0 -20 -7 -20 -15 0 -8 -7 -15 -15 -15 -8 0 -15 -4 -15
-10 0 -5 -9 -10 -20 -10 -11 0 -20 -4 -20 -10 0 -5 -11 -10 -25 -10 -14 0 -25
-4 -25 -10 0 -5 -13 -10 -30 -10 -20 0 -30 -5 -30 -15 0 -8 -6 -15 -13 -15 -7
0 -19 -9 -27 -20 -11 -15 -26 -20 -57 -20 -24 0 -43 -4 -43 -10 0 -5 -11 -10
-25 -10 -14 0 -25 -5 -25 -11 0 -16 -26 -39 -44 -39 -9 0 -16 -4 -16 -10 0 -5
-11 -10 -25 -10 -16 0 -25 -6 -25 -15 0 -10 -10 -15 -33 -15 -21 0 -38 -7 -47
-20 -8 -11 -25 -20 -37 -20 -13 0 -23 -4 -23 -10 0 -5 -9 -10 -20 -10 -11 0
-20 -7 -20 -15 0 -10 -10 -15 -33 -15 -21 0 -38 -7 -47 -20 -8 -11 -20 -20
-27 -20 -7 0 -13 -4 -13 -10 0 -5 -13 -10 -30 -10 -20 0 -30 -5 -30 -15 0 -9
-9 -15 -23 -15 -12 0 -29 -9 -37 -20 -8 -11 -25 -20 -37 -20 -14 0 -23 -6 -23
-15 0 -8 -9 -15 -20 -15 -11 0 -20 -4 -20 -10 0 -5 -9 -10 -20 -10 -22 0 -70
-41 -70 -60 0 -5 -16 -10 -35 -10 -19 0 -35 -4 -35 -10 0 -5 -9 -10 -20 -10
-22 0 -70 -41 -70 -60 0 -5 -11 -10 -25 -10 -14 0 -25 -4 -25 -10 0 -5 -9 -10
-20 -10 -11 0 -20 -4 -20 -10 0 -5 -7 -10 -15 -10 -8 0 -15 -4 -15 -10 0 -5
-9 -10 -20 -10 -11 0 -20 -7 -20 -15 0 -9 -9 -15 -25 -15 -14 0 -25 -4 -25
-10 0 -5 -9 -10 -20 -10 -15 0 -20 -7 -20 -25 0 -20 -5 -25 -25 -25 -14 0 -25
-4 -25 -10 0 -5 -9 -10 -20 -10 -11 0 -20 -4 -20 -10 0 -5 -9 -10 -21 -10 -22
0 -49 -22 -49 -39 0 -6 -11 -11 -25 -11 -14 0 -25 -4 -25 -10 0 -5 -8 -10 -18
-10 -10 0 -24 -9 -32 -20 -8 -11 -20 -20 -27 -20 -7 0 -13 -7 -13 -15 0 -8 -9
-15 -20 -15 -11 0 -20 -4 -20 -10 0 -5 -16 -10 -35 -10 -19 0 -35 -4 -35 -10
0 -5 -11 -10 -25 -10 -19 0 -25 -5 -25 -21 0 -29 -24 -49 -59 -49 -17 0 -31
-4 -31 -10 0 -5 -9 -10 -20 -10 -11 0 -20 -7 -20 -15 0 -8 -7 -15 -15 -15 -8
0 -15 -4 -15 -10 0 -5 -8 -10 -18 -10 -10 0 -24 -9 -32 -20 -8 -11 -25 -20
-37 -20 -14 0 -23 -6 -23 -15 0 -8 -4 -15 -10 -15 -5 0 -10 -9 -10 -20 0 -15
-7 -20 -25 -20 -16 0 -25 -6 -25 -15 0 -8 -8 -15 -18 -15 -10 0 -24 -9 -32
-20 -8 -11 -23 -20 -33 -20 -20 0 -47 -22 -47 -39 0 -6 -9 -11 -21 -11 -12 0
-34 -13 -49 -30 -15 -16 -33 -30 -39 -30 -6 0 -11 -7 -11 -15 0 -8 -7 -15 -16
-15 -22 0 -44 -25 -44 -49 0 -16 -6 -21 -25 -21 -14 0 -25 -4 -25 -10 0 -5
-10 -10 -23 -10 -12 0 -29 -9 -37 -20 -8 -11 -22 -20 -32 -20 -10 0 -18 -7
-18 -15 0 -8 -7 -15 -15 -15 -8 0 -15 -4 -15 -10 0 -5 -8 -10 -18 -10 -10 0
-24 -9 -32 -20 -8 -11 -20 -20 -27 -20 -7 0 -13 -5 -13 -11 0 -16 -26 -39 -45
-39 -15 0 -65 -42 -65 -55 0 -13 -29 -35 -45 -35 -16 0 -45 -22 -45 -35 0 -14
-30 -35 -49 -35 -12 0 -21 -4 -21 -10 0 -5 -9 -10 -21 -10 -19 0 -49 -21 -49
-35 0 -13 -50 -55 -65 -55 -23 0 -45 -25 -45 -49 0 -15 -6 -21 -21 -21 -19 0
-49 -21 -49 -35 0 -13 -50 -55 -65 -55 -19 0 -45 -23 -45 -39 0 -6 -6 -11 -13
-11 -7 0 -19 -9 -27 -20 -8 -11 -22 -20 -32 -20 -10 0 -18 -4 -18 -10 0 -5 -7
-10 -15 -10 -8 0 -15 -5 -15 -11 0 -6 -13 -24 -30 -39 -16 -15 -30 -33 -30
-39 0 -6 -11 -11 -25 -11 -18 0 -25 -5 -25 -20 0 -14 -7 -20 -21 -20 -19 0
-49 -21 -49 -35 0 -8 -47 -55 -55 -55 -8 0 -35 -27 -35 -35 0 -10 -48 -55 -60
-55 -5 0 -10 -5 -10 -10 0 -12 -45 -60 -55 -60 -10 0 -35 -28 -35 -39 0 -6 -9
-11 -20 -11 -11 0 -20 -4 -20 -10 0 -5 -5 -10 -10 -10 -14 0 -60 -46 -60 -60
0 -5 -9 -10 -21 -10 -12 0 -34 -13 -49 -30 -15 -16 -33 -30 -39 -30 -6 0 -11
-7 -11 -15 0 -8 -8 -15 -18 -15 -10 0 -24 -9 -32 -20 -8 -11 -20 -20 -27 -20
-7 0 -13 -5 -13 -10 0 -14 -66 -80 -80 -80 -5 0 -10 -5 -10 -10 0 -19 -48 -60
-70 -60 -15 0 -20 -6 -20 -25 0 -18 -5 -25 -20 -25 -13 0 -20 -7 -20 -20 0
-11 -7 -20 -15 -20 -8 0 -15 -5 -15 -10 0 -14 -66 -80 -80 -80 -5 0 -10 -5
-10 -10 0 -14 -66 -80 -80 -80 -5 0 -10 -5 -10 -10 0 -14 -46 -60 -60 -60 -5
0 -10 -5 -10 -10 0 -14 -66 -80 -80 -80 -5 0 -10 -7 -10 -15 0 -8 -4 -15 -10
-15 -5 0 -10 -7 -10 -16 0 -22 -25 -44 -49 -44 -16 0 -21 -6 -21 -25 0 -14 -4
-25 -10 -25 -5 0 -10 -11 -10 -25 0 -19 -5 -25 -20 -25 -25 0 -70 -42 -70 -65
0 -16 -22 -45 -35 -45 -8 0 -55 -47 -55 -55 0 -8 -27 -35 -35 -35 -10 0 -55
-48 -55 -60 0 -5 -5 -10 -10 -10 -14 0 -60 -46 -60 -60 0 -5 -4 -10 -10 -10
-5 0 -10 -9 -10 -20 0 -14 -7 -20 -21 -20 -25 0 -49 -22 -49 -45 0 -16 -22
-45 -35 -45 -8 0 -35 -27 -35 -35 0 -10 -48 -55 -60 -55 -5 0 -10 -6 -10 -13
0 -7 -9 -19 -20 -27 -11 -8 -20 -22 -20 -32 0 -10 -7 -18 -15 -18 -8 0 -15 -7
-15 -15 0 -8 -4 -15 -10 -15 -5 0 -10 -8 -10 -18 0 -10 -9 -24 -20 -32 -11 -8
-20 -20 -20 -27 0 -7 -7 -13 -15 -13 -8 0 -15 -9 -15 -20 0 -11 -4 -20 -10
-20 -5 0 -10 -6 -10 -13 0 -7 -9 -19 -20 -27 -11 -8 -20 -22 -20 -32 0 -10 -7
-18 -15 -18 -8 0 -15 -5 -15 -10 0 -12 -45 -60 -55 -60 -10 0 -35 -28 -35 -39
0 -6 -4 -11 -10 -11 -5 0 -10 -9 -10 -20 0 -11 -4 -20 -10 -20 -5 0 -10 -7
-10 -15 0 -8 -5 -15 -11 -15 -16 0 -39 -26 -39 -44 0 -9 -4 -16 -10 -16 -5 0
-10 -9 -10 -21 0 -19 -21 -49 -35 -49 -13 0 -35 -29 -35 -45 0 -23 -24 -45
-49 -45 -14 0 -21 -6 -21 -20 0 -22 -41 -70 -60 -70 -5 0 -10 -7 -10 -15 0 -8
-4 -15 -10 -15 -5 0 -10 -8 -10 -18 0 -10 -9 -24 -20 -32 -11 -8 -20 -25 -20
-37 0 -13 -5 -23 -11 -23 -16 0 -39 -26 -39 -45 0 -16 -22 -45 -35 -45 -10 0
-35 -28 -35 -39 0 -6 -4 -11 -10 -11 -5 0 -10 -7 -10 -16 0 -18 -23 -44 -39
-44 -6 0 -11 -6 -11 -13 0 -7 -9 -19 -20 -27 -11 -8 -20 -22 -20 -32 0 -10 -4
-18 -10 -18 -5 0 -10 -11 -10 -25 0 -16 -6 -25 -15 -25 -9 0 -15 -9 -15 -23 0
-12 -9 -29 -20 -37 -11 -8 -20 -22 -20 -32 0 -10 -4 -18 -10 -18 -5 0 -10 -7
-10 -15 0 -8 -5 -15 -10 -15 -19 0 -60 -48 -60 -70 0 -11 -7 -20 -15 -20 -10
0 -15 -10 -15 -31 0 -22 -9 -40 -30 -59 -16 -15 -30 -37 -30 -49 0 -12 -5 -21
-11 -21 -16 0 -39 -26 -39 -44 0 -9 -4 -16 -10 -16 -5 0 -10 -5 -10 -11 0 -14
-25 -39 -39 -39 -6 0 -11 -14 -11 -30 0 -30 -37 -80 -60 -80 -5 0 -10 -10 -10
-23 0 -12 -9 -29 -20 -37 -11 -8 -20 -23 -20 -33 0 -20 -22 -47 -39 -47 -6 0
-11 -9 -11 -20 0 -11 -4 -20 -10 -20 -5 0 -10 -10 -10 -23 0 -12 -9 -29 -20
-37 -11 -8 -20 -20 -20 -27 0 -7 -7 -13 -15 -13 -8 0 -15 -9 -15 -20 0 -11 -4
-20 -10 -20 -5 0 -10 -9 -10 -21 0 -19 -21 -49 -35 -49 -14 0 -35 -30 -35 -49
0 -12 -4 -21 -10 -21 -5 0 -10 -14 -10 -31 0 -35 -20 -59 -49 -59 -14 0 -21
-6 -21 -20 0 -11 -4 -20 -10 -20 -5 0 -10 -20 -10 -45 0 -25 -4 -45 -10 -45
-5 0 -10 -7 -10 -15 0 -8 -5 -15 -11 -15 -17 0 -39 -27 -39 -49 0 -12 -4 -21
-10 -21 -5 0 -10 -13 -10 -30 0 -20 -5 -30 -15 -30 -9 0 -15 -9 -15 -23 0 -12
-9 -29 -20 -37 -11 -8 -20 -25 -20 -37 0 -13 -4 -23 -10 -23 -5 0 -10 -9 -10
-20 0 -11 -7 -20 -15 -20 -9 0 -15 -9 -15 -23 0 -12 -9 -29 -20 -37 -13 -9
-20 -26 -20 -47 0 -18 -4 -33 -10 -33 -5 0 -10 -9 -10 -20 0 -11 -7 -20 -15
-20 -8 0 -15 -6 -15 -13 0 -7 -9 -19 -20 -27 -13 -9 -20 -26 -20 -47 0 -18 -4
-33 -10 -33 -5 0 -10 -9 -10 -20 0 -11 -7 -20 -15 -20 -9 0 -15 -9 -15 -23 0
-12 -9 -29 -20 -37 -11 -8 -20 -25 -20 -37 0 -14 -6 -23 -15 -23 -10 0 -15
-10 -15 -30 0 -16 -4 -30 -10 -30 -5 0 -10 -6 -10 -13 0 -7 -9 -19 -20 -27
-11 -8 -20 -25 -20 -37 0 -14 -6 -23 -15 -23 -11 0 -15 -11 -15 -41 0 -33 -6
-47 -30 -69 -16 -15 -30 -37 -30 -49 0 -12 -6 -21 -15 -21 -10 0 -15 -11 -15
-35 0 -19 -4 -35 -10 -35 -5 0 -10 -9 -10 -20 0 -15 -7 -20 -25 -20 -20 0 -25
-5 -25 -25 0 -14 -4 -25 -10 -25 -5 0 -10 -25 -10 -55 0 -30 -4 -55 -10 -55
-5 0 -10 -9 -10 -20 0 -11 -4 -20 -10 -20 -5 0 -10 -7 -10 -15 0 -8 -7 -15
-15 -15 -8 0 -15 -9 -15 -20 0 -11 -4 -20 -10 -20 -5 0 -10 -20 -10 -45 0 -25
-4 -45 -10 -45 -5 0 -10 -11 -10 -25 0 -14 -4 -25 -10 -25 -5 0 -10 -9 -10
-20 0 -11 -7 -20 -15 -20 -9 0 -15 -9 -15 -25 0 -14 -4 -25 -10 -25 -5 0 -10
-25 -10 -55 0 -30 -4 -55 -10 -55 -5 0 -10 -7 -10 -15 0 -8 -7 -15 -15 -15 -8
0 -15 -9 -15 -20 0 -11 -4 -20 -10 -20 -5 0 -10 -11 -10 -25 0 -14 -4 -25 -10
-25 -5 0 -10 -20 -10 -45 0 -25 -4 -45 -10 -45 -5 0 -10 -9 -10 -20 0 -11 -7
-20 -15 -20 -9 0 -15 -9 -15 -25 0 -14 -4 -25 -10 -25 -5 0 -10 -9 -10 -20 0
-11 -4 -20 -10 -20 -5 0 -10 -22 -10 -50 0 -27 -4 -50 -10 -50 -5 0 -10 -9
-10 -20 0 -11 -5 -20 -11 -20 -17 0 -39 -27 -39 -49 0 -12 -4 -21 -10 -21 -5
0 -10 -20 -10 -45 0 -33 -4 -45 -15 -45 -10 0 -15 -10 -15 -33 0 -21 -7 -38
-20 -47 -13 -9 -20 -26 -20 -47 0 -18 -4 -33 -10 -33 -5 0 -10 -16 -10 -35 0
-24 -5 -35 -15 -35 -10 0 -15 -10 -15 -30 0 -16 -4 -30 -10 -30 -5 0 -10 -16
-10 -35 0 -19 -4 -35 -10 -35 -5 0 -10 -16 -10 -35 0 -19 -4 -35 -10 -35 -5 0
-10 -20 -10 -45 0 -33 -4 -45 -15 -45 -11 0 -15 -12 -15 -45 0 -25 -4 -45 -10
-45 -5 0 -10 -11 -10 -25 0 -14 -4 -25 -10 -25 -5 0 -10 -9 -10 -20 0 -11 -4
-20 -10 -20 -6 0 -10 -30 -10 -70 0 -56 -3 -70 -15 -70 -10 0 -15 -11 -15 -35
0 -19 -4 -35 -10 -35 -5 0 -10 -9 -10 -20 0 -11 -4 -20 -10 -20 -5 0 -10 -16
-10 -35 0 -24 -5 -35 -15 -35 -12 0 -15 -13 -15 -55 0 -30 -4 -55 -10 -55 -5
0 -10 -16 -10 -35 0 -19 -4 -35 -10 -35 -5 0 -10 -16 -10 -35 0 -19 -4 -35
-10 -35 -5 0 -10 -16 -10 -35 0 -24 -5 -35 -15 -35 -12 0 -15 -13 -15 -55 0
-30 -4 -55 -10 -55 -5 0 -10 -16 -10 -35 0 -19 -4 -35 -10 -35 -5 0 -10 -11
-10 -25 0 -14 -4 -25 -10 -25 -5 0 -10 -9 -10 -20 0 -11 -7 -20 -15 -20 -12 0
-15 -14 -15 -70 0 -40 -4 -70 -10 -70 -5 0 -10 -16 -10 -35 0 -19 -4 -35 -10
-35 -5 0 -10 -20 -10 -45 0 -33 -4 -45 -15 -45 -8 0 -15 -9 -15 -20 0 -11 -4
-20 -10 -20 -6 0 -10 -42 -10 -105 0 -63 -4 -105 -10 -105 -5 0 -10 -13 -10
-30 0 -16 -4 -30 -10 -30 -5 0 -10 -11 -10 -25 0 -16 -6 -25 -15 -25 -10 0
-15 -11 -15 -35 0 -19 -4 -35 -10 -35 -6 0 -10 -40 -10 -100 0 -60 -4 -100
-10 -100 -5 0 -10 -20 -10 -45 0 -25 -4 -45 -10 -45 -5 0 -10 -16 -10 -35 0
-24 -5 -35 -15 -35 -11 0 -15 -12 -15 -45 0 -25 -4 -45 -10 -45 -6 0 -10 -48
-10 -125 0 -77 -4 -125 -10 -125 -6 0 -10 -27 -10 -60 0 -47 -3 -60 -15 -60
-11 0 -15 -12 -15 -45 0 -25 -4 -45 -10 -45 -5 0 -10 -13 -10 -30 0 -16 -4
-30 -10 -30 -6 0 -10 -72 -10 -195 0 -123 -4 -195 -10 -195 -6 0 -10 -33 -10
-80 0 -64 -3 -80 -15 -80 -12 0 -15 -14 -15 -70 0 -40 -4 -70 -10 -70 -6 0
-10 -28 -10 -65 0 -37 -4 -65 -10 -65 -6 0 -10 -140 -10 -400 0 -260 -3 -400
-10 -400 -6 0 -10 -93 -10 -260 0 -224 -2 -260 -15 -260 -13 0 -15 -41 -15
-305 0 -264 2 -305 15 -305 13 0 15 -33 15 -240 0 -153 4 -240 10 -240 6 0 10
-93 10 -260 0 -167 4 -260 10 -260 6 0 10 -42 10 -105 0 -63 4 -105 10 -105 6
0 10 -28 10 -65 0 -51 3 -65 15 -65 12 0 15 -17 15 -90 0 -53 4 -90 10 -90 6
0 10 -72 10 -195 0 -123 4 -195 10 -195 6 0 10 -30 10 -70 0 -40 4 -70 10 -70
6 0 10 -25 10 -55 0 -42 3 -55 15 -55 10 0 15 -11 15 -35 0 -19 5 -35 10 -35
6 0 10 -55 10 -145 0 -90 4 -145 10 -145 6 0 10 -16 10 -35 0 -24 5 -35 15
-35 10 0 15 -11 15 -35 0 -19 5 -35 10 -35 6 0 10 -25 10 -55 0 -30 5 -55 10
-55 6 0 10 -42 10 -105 0 -63 4 -105 10 -105 6 0 10 -16 10 -35 0 -24 5 -35
15 -35 8 0 15 -9 15 -20 0 -11 5 -20 10 -20 6 0 10 -16 10 -35 0 -19 5 -35 10
-35 6 0 10 -40 10 -100 0 -60 4 -100 10 -100 6 0 10 -16 10 -35 0 -24 5 -35
15 -35 9 0 15 -9 15 -25 0 -14 5 -25 10 -25 6 0 10 -20 10 -45 0 -25 5 -45 10
-45 6 0 10 -28 10 -65 0 -51 3 -65 15 -65 10 0 15 -11 15 -35 0 -19 5 -35 10
-35 6 0 10 -11 10 -25 0 -14 5 -25 10 -25 6 0 10 -16 10 -35 0 -19 5 -35 10
-35 6 0 10 -28 10 -65 0 -51 3 -65 15 -65 10 0 15 -11 15 -35 0 -19 5 -35 10
-35 6 0 10 -11 10 -25 0 -14 5 -25 10 -25 6 0 10 -20 10 -45 0 -25 5 -45 10
-45 6 0 10 -20 10 -45 0 -33 4 -45 15 -45 10 0 15 -11 15 -35 0 -19 5 -35 10
-35 6 0 10 -9 10 -20 0 -11 5 -20 10 -20 6 0 10 -16 10 -35 0 -24 5 -35 15
-35 11 0 15 -12 15 -45 0 -25 5 -45 10 -45 6 0 10 -16 10 -35 0 -19 5 -35 10
-35 6 0 10 -9 10 -20 0 -11 5 -20 10 -20 6 0 10 -20 10 -45 0 -33 4 -45 15
-45 10 0 15 -11 15 -35 0 -19 5 -35 10 -35 6 0 10 -16 10 -35 0 -19 5 -35 10
-35 6 0 10 -11 10 -25 0 -14 5 -25 10 -25 6 0 10 -9 10 -20 0 -11 7 -20 15
-20 12 0 15 -14 15 -70 0 -40 4 -70 10 -70 6 0 10 -9 10 -20 0 -11 5 -20 10
-20 6 0 10 -11 10 -25 0 -14 5 -25 10 -25 6 0 10 -9 10 -20 0 -11 7 -20 15
-20 11 0 15 -12 15 -45 0 -25 5 -45 10 -45 6 0 10 -9 10 -21 0 -22 22 -49 39
-49 6 0 11 -11 11 -25 0 -14 5 -25 10 -25 6 0 10 -20 10 -45 0 -25 5 -45 10
-45 6 0 10 -16 10 -35 0 -19 5 -35 10 -35 6 0 10 -9 10 -20 0 -11 7 -20 15
-20 9 0 15 -9 15 -25 0 -14 5 -25 10 -25 6 0 10 -24 10 -53 0 -41 4 -56 20
-67 11 -8 20 -25 20 -37 0 -14 6 -23 15 -23 8 0 15 -9 15 -20 0 -11 5 -20 10
-20 6 0 10 -16 10 -35 0 -19 5 -35 10 -35 6 0 10 -11 10 -25 0 -14 5 -25 11
-25 17 0 39 -27 39 -49 0 -12 5 -21 10 -21 6 0 10 -13 10 -30 0 -16 5 -30 10
-30 6 0 10 -11 10 -25 0 -14 5 -25 11 -25 17 0 39 -27 39 -49 0 -12 5 -21 10
-21 6 0 10 -16 10 -35 0 -19 5 -35 10 -35 6 0 10 -9 10 -20 0 -11 5 -20 11
-20 17 0 39 -27 39 -49 0 -12 5 -21 10 -21 6 0 10 -20 10 -45 0 -25 5 -45 11
-45 14 0 39 -25 39 -39 0 -6 5 -11 10 -11 6 0 10 -13 10 -30 0 -16 5 -30 10
-30 6 0 10 -16 10 -35 0 -24 5 -35 15 -35 8 0 15 -6 15 -13 0 -7 9 -19 20 -27
11 -8 20 -22 20 -32 0 -10 5 -18 10 -18 6 0 10 -16 10 -35 0 -24 5 -35 15 -35
9 0 15 -9 15 -23 0 -12 9 -29 20 -37 11 -8 20 -22 20 -32 0 -10 7 -18 15 -18
11 0 15 -12 15 -46 0 -38 5 -51 30 -74 17 -15 30 -37 30 -49 0 -12 6 -21 15
-21 10 0 15 -10 15 -30 0 -16 5 -30 10 -30 6 0 10 -5 10 -10 0 -14 46 -60 60
-60 5 0 10 -16 10 -35 0 -19 5 -35 10 -35 6 0 10 -9 10 -20 0 -22 41 -70 60
-70 5 0 10 -11 10 -25 0 -14 5 -25 10 -25 6 0 10 -9 10 -20 0 -11 5 -20 10
-20 6 0 10 -7 10 -15 0 -8 5 -15 11 -15 21 0 39 -29 39 -65 0 -35 35 -85 60
-85 5 0 10 -6 10 -13 0 -7 9 -19 20 -27 12 -9 20 -26 20 -43 0 -29 19 -57 39
-57 6 0 11 -11 11 -25 0 -14 5 -25 10 -25 6 0 10 -7 10 -16 0 -18 23 -44 39
-44 6 0 11 -6 11 -13 0 -7 9 -19 20 -27 11 -8 20 -22 20 -32 0 -10 5 -18 10
-18 6 0 10 -7 10 -15 0 -8 5 -15 10 -15 21 0 60 -49 60 -75 0 -27 20 -55 39
-55 6 0 11 -7 11 -15 0 -8 5 -15 10 -15 6 0 10 -7 10 -16 0 -18 23 -44 39 -44
6 0 11 -11 11 -25 0 -18 5 -25 20 -25 15 0 20 -7 20 -25 0 -14 5 -25 10 -25 6
0 10 -9 10 -20 0 -11 5 -20 11 -20 14 0 39 -25 39 -39 0 -6 5 -11 10 -11 6 0
10 -7 10 -16 0 -18 23 -44 39 -44 6 0 11 -10 11 -23 0 -12 9 -29 20 -37 11 -8
20 -20 20 -27 0 -7 5 -13 10 -13 14 0 80 -66 80 -80 0 -5 5 -10 11 -10 16 0
39 -26 39 -44 0 -9 5 -16 10 -16 6 0 10 -5 10 -11 0 -11 25 -39 35 -39 12 0
35 -29 35 -45 0 -18 43 -65 60 -65 5 0 10 -9 10 -20 0 -22 41 -70 60 -70 5 0
10 -7 10 -15 0 -8 5 -15 10 -15 6 0 10 -8 10 -18 0 -10 9 -24 20 -32 11 -8 20
-20 20 -27 0 -7 5 -13 10 -13 12 0 60 -45 60 -55 0 -8 27 -35 35 -35 15 0 55
-51 55 -70 0 -14 7 -20 21 -20 25 0 49 -22 49 -45 0 -16 22 -45 35 -45 8 0 35
-27 35 -35 0 -8 47 -55 55 -55 8 0 35 -27 35 -35 0 -8 27 -35 35 -35 8 0 55
-47 55 -55 0 -8 27 -35 35 -35 9 0 35 -27 35 -37 0 -5 9 -15 20 -23 11 -8 20
-22 20 -32 0 -10 7 -18 15 -18 8 0 15 -7 15 -15 0 -8 9 -15 20 -15 11 0 20 -4
20 -10 0 -5 7 -10 15 -10 8 0 15 -9 15 -20 0 -11 5 -20 10 -20 6 0 10 -5 10
-10 0 -14 46 -60 60 -60 5 0 10 -5 10 -10 0 -14 66 -80 80 -80 5 0 10 -5 10
-10 0 -14 66 -80 80 -80 5 0 10 -9 10 -21 0 -25 22 -49 45 -49 16 0 45 -22 45
-35 0 -10 48 -55 60 -55 5 0 10 -7 10 -15 0 -8 8 -15 18 -15 10 0 24 -9 32
-20 8 -11 18 -20 23 -20 10 0 37 -26 37 -35 0 -10 28 -35 39 -35 6 0 11 -4 11
-10 0 -5 7 -10 16 -10 18 0 44 -23 44 -39 0 -6 5 -11 10 -11 12 0 60 -45 60
-55 0 -8 27 -35 35 -35 10 0 55 -48 55 -60 0 -5 5 -10 10 -10 14 0 80 -66 80
-80 0 -5 7 -10 15 -10 8 0 15 -4 15 -10 0 -5 7 -10 16 -10 18 0 44 -23 44 -39
0 -6 6 -11 13 -11 7 0 19 -9 27 -20 8 -11 23 -20 33 -20 18 0 47 -22 47 -35 0
-14 30 -35 49 -35 14 0 21 -6 21 -20 0 -11 5 -20 10 -20 6 0 10 -7 10 -15 0
-8 9 -15 20 -15 11 0 20 -4 20 -10 0 -5 5 -10 11 -10 11 0 39 -25 39 -35 0
-13 50 -55 65 -55 19 0 45 -23 45 -39 0 -6 5 -11 10 -11 14 0 80 -66 80 -80 0
-5 7 -10 15 -10 8 0 15 -4 15 -10 0 -5 8 -10 18 -10 10 0 24 -9 32 -20 8 -11
25 -20 37 -20 13 0 23 -5 23 -11 0 -16 26 -39 45 -39 16 0 45 -22 45 -35 0
-10 28 -35 39 -35 6 0 11 -4 11 -10 0 -5 7 -10 16 -10 18 0 44 -23 44 -39 0
-6 10 -11 23 -11 12 0 29 -9 37 -20 8 -11 20 -20 27 -20 7 0 13 -4 13 -10 0
-5 14 -10 30 -10 20 0 30 -5 30 -15 0 -8 5 -15 10 -15 14 0 60 -46 60 -60 0
-5 9 -10 21 -10 12 0 34 -14 49 -30 15 -17 33 -30 39 -30 6 0 11 -7 11 -15 0
-8 9 -15 20 -15 11 0 20 -4 20 -10 0 -5 9 -10 20 -10 22 0 70 -41 70 -60 0 -5
9 -10 20 -10 22 0 70 -41 70 -60 0 -5 10 -10 23 -10 12 0 29 -9 37 -20 8 -11
23 -20 33 -20 18 0 47 -22 47 -35 0 -12 29 -35 45 -35 18 0 65 -43 65 -60 0
-5 11 -10 25 -10 14 0 25 -4 25 -10 0 -5 9 -10 20 -10 11 0 20 -4 20 -10 0 -5
7 -10 15 -10 9 0 15 -9 15 -25 0 -18 5 -25 20 -25 11 0 20 -4 20 -10 0 -5 11
-10 25 -10 14 0 25 -4 25 -10 0 -5 9 -10 20 -10 11 0 20 -5 20 -11 0 -17 27
-39 49 -39 12 0 21 -4 21 -10 0 -5 9 -10 21 -10 19 0 49 -21 49 -35 0 -14 30
-35 49 -35 12 0 21 -4 21 -10 0 -5 14 -10 30 -10 17 0 30 -4 30 -10 0 -5 7
-10 15 -10 8 0 15 -5 15 -11 0 -17 27 -39 49 -39 12 0 21 -4 21 -10 0 -5 9
-10 20 -10 11 0 20 -5 20 -11 0 -14 25 -39 39 -39 6 0 11 -4 11 -10 0 -5 9
-10 20 -10 11 0 20 -4 20 -10 0 -5 16 -10 35 -10 29 0 35 -4 35 -21 0 -26 23
-49 49 -49 12 0 21 -4 21 -10 0 -5 16 -10 35 -10 19 0 35 -5 35 -10 0 -19 48
-60 70 -60 11 0 20 -7 20 -15 0 -8 9 -15 20 -15 11 0 20 -4 20 -10 0 -5 9 -10
20 -10 22 0 70 -41 70 -60 0 -5 15 -10 33 -10 21 0 38 -7 47 -20 8 -11 20 -20
27 -20 7 0 13 -4 13 -10 0 -5 9 -10 20 -10 11 0 20 -5 20 -11 0 -17 27 -39 49
-39 12 0 21 -4 21 -10 0 -5 11 -10 25 -10 16 0 25 -6 25 -15 0 -8 9 -15 20
-15 11 0 20 -4 20 -10 0 -5 9 -10 20 -10 22 0 70 -41 70 -60 0 -5 11 -10 25
-10 14 0 25 -4 25 -10 0 -5 15 -10 33 -10 21 0 38 -7 47 -20 8 -11 22 -20 32
-20 10 0 18 -7 18 -15 0 -9 9 -15 25 -15 14 0 25 -4 25 -10 0 -5 14 -10 31
-10 27 0 59 -19 59 -35 0 -14 30 -35 49 -35 12 0 21 -4 21 -10 0 -5 16 -10 35
-10 19 0 35 -4 35 -10 0 -5 9 -10 20 -10 11 0 20 -5 20 -11 0 -17 27 -39 49
-39 12 0 21 -4 21 -10 0 -5 16 -10 35 -10 19 0 35 -4 35 -10 0 -5 9 -10 20
-10 11 0 20 -7 20 -15 0 -8 6 -15 13 -15 7 0 19 -9 27 -20 9 -13 26 -20 47
-20 18 0 33 -4 33 -10 0 -5 9 -10 20 -10 11 0 20 -5 20 -11 0 -17 27 -39 49
-39 12 0 21 -4 21 -10 0 -5 16 -10 35 -10 24 0 35 -5 35 -15 0 -8 9 -15 20
-15 11 0 20 -4 20 -10 0 -5 7 -10 15 -10 8 0 15 -4 15 -10 0 -5 9 -10 20 -10
11 0 20 -4 20 -10 0 -5 16 -10 35 -10 19 0 35 -5 35 -11 0 -17 27 -39 49 -39
12 0 21 -4 21 -10 0 -5 9 -10 20 -10 11 0 20 -4 20 -10 0 -5 16 -10 35 -10 19
0 35 -5 35 -11 0 -14 25 -39 39 -39 6 0 11 -4 11 -10 0 -5 14 -10 30 -10 20 0
30 -5 30 -15 0 -9 9 -15 25 -15 14 0 25 -4 25 -10 0 -5 11 -10 25 -10 14 0 25
-4 25 -10 0 -5 9 -10 20 -10 11 0 20 -4 20 -10 0 -5 11 -10 25 -10 14 0 25 -6
25 -14 0 -8 17 -16 46 -20 60 -8 18737 -8 18758 0 9 3 16 12 16 20 0 8 9 14
21 14 12 0 34 14 49 30 15 17 37 30 49 30 12 0 21 6 21 15 0 8 5 15 10 15 7 0
10 5047 10 15120 0 10073 -3 15120 -10 15120 -5 0 -10 7 -10 15 0 12 -13 15
-58 15 -46 0 -60 4 -72 20 -8 11 -22 20 -32 20 -10 0 -18 7 -18 15 0 9 -9 15
-25 15 -14 0 -25 5 -25 10 0 6 -16 10 -35 10 -19 0 -35 5 -35 10 0 6 -14 10
-31 10 -30 0 -59 19 -59 39 0 6 -16 11 -35 11 -19 0 -35 5 -35 10 0 6 -18 10
-40 10 -30 0 -47 7 -65 25 -14 13 -25 29 -25 35 0 5 -11 10 -25 10 -14 0 -25
5 -25 10 0 6 -20 10 -45 10 -25 0 -45 5 -45 10 0 6 -16 10 -35 10 -24 0 -35 5
-35 15 0 8 -9 15 -20 15 -11 0 -20 5 -20 10 0 6 -11 10 -25 10 -14 0 -25 5
-25 10 0 6 -20 10 -45 10 -25 0 -45 5 -45 10 0 6 -9 10 -20 10 -11 0 -20 7
-20 15 0 9 -9 15 -25 15 -14 0 -25 5 -25 10 0 6 -9 10 -20 10 -11 0 -20 5 -20
10 0 6 -22 10 -50 10 -27 0 -50 5 -50 10 0 6 -13 10 -30 10 -20 0 -30 5 -30
15 0 9 -9 15 -25 15 -14 0 -25 5 -25 10 0 6 -9 10 -20 10 -11 0 -20 5 -20 10
0 6 -27 10 -60 10 -47 0 -60 3 -60 15 0 11 -11 15 -43 15 -31 0 -46 5 -57 20
-9 13 -26 20 -47 20 -18 0 -33 5 -33 10 0 6 -33 10 -80 10 -64 0 -80 3 -80 15
0 8 -9 15 -20 15 -11 0 -20 5 -20 10 0 6 -20 10 -45 10 -25 0 -45 5 -45 10 0
6 -11 10 -25 10 -14 0 -25 5 -25 10 0 6 -25 10 -55 10 -42 0 -55 3 -55 15 0
11 -12 15 -45 15 -25 0 -45 5 -45 10 0 6 -16 10 -35 10 -19 0 -35 5 -35 10 0
6 -11 10 -25 10 -14 0 -25 5 -25 10 0 6 -33 10 -80 10 -64 0 -80 3 -80 15 0
10 -11 15 -35 15 -19 0 -35 5 -35 10 0 6 -9 10 -20 10 -11 0 -20 5 -20 10 0 6
-16 10 -35 10 -24 0 -35 5 -35 15 0 12 -16 15 -80 15 -47 0 -80 4 -80 10 0 6
-16 10 -35 10 -19 0 -35 5 -35 10 0 6 -13 10 -30 10 -16 0 -30 5 -30 10 0 6
-11 10 -25 10 -16 0 -25 6 -25 15 0 12 -17 15 -90 15 -53 0 -90 4 -90 10 0 6
-30 10 -70 10 -40 0 -70 4 -70 10 0 6 -16 10 -35 10 -19 0 -35 5 -35 10 0 6
-13 10 -30 10 -20 0 -30 5 -30 15 0 13 -21 15 -125 15 -77 0 -125 4 -125 10 0
6 -27 10 -60 10 -33 0 -60 4 -60 10 0 6 -25 10 -55 10 -42 0 -55 3 -55 15 0
10 -11 15 -35 15 -19 0 -35 5 -35 10 0 6 -60 10 -160 10 -100 0 -160 4 -160
10 0 6 -25 10 -55 10 -30 0 -55 5 -55 10 0 6 -25 10 -55 10 -42 0 -55 3 -55
15 0 11 -12 15 -45 15 -25 0 -45 5 -45 10 0 6 -48 10 -125 10 -77 0 -125 4
-125 10 0 6 -42 10 -105 10 -63 0 -105 4 -105 10 0 6 -33 10 -80 10 -64 0 -80
3 -80 15 0 12 -16 15 -80 15 -47 0 -80 4 -80 10 0 6 -117 10 -330 10 -213 0
-330 4 -330 10 0 6 -43 10 -110 10 -91 0 -110 3 -110 15 0 12 -19 15 -115 15
-70 0 -115 4 -115 10 0 6 -37 10 -90 10 -53 0 -90 4 -90 10 0 7 -355 10 -1045
10 -690 0 -1045 -3 -1045 -10z"/>
</g>
</svg>
